<?xml version="1.0" encoding="utf-8" standalone="no"?>
<!DOCTYPE svg PUBLIC "-//W3C//DTD SVG 1.1//EN"
  "http://www.w3.org/Graphics/SVG/1.1/DTD/svg11.dtd">
<!-- Created with matplotlib (http://matplotlib.org/) -->
<svg height="288pt" version="1.1" viewBox="0 0 432 288" width="432pt" xmlns="http://www.w3.org/2000/svg" xmlns:xlink="http://www.w3.org/1999/xlink">
 <defs>
  <style type="text/css">
*{stroke-linecap:butt;stroke-linejoin:round;}
  </style>
 </defs>
 <g id="figure_1">
  <g id="patch_1">
   <path d="M 0 288 
L 432 288 
L 432 0 
L 0 0 
z
" style="fill:#ffffff;"/>
  </g>
  <g id="axes_1">
   <g id="patch_2">
    <path d="M 54 252 
L 388.8 252 
L 388.8 34.56 
L 54 34.56 
z
" style="fill:#eaeaf2;"/>
   </g>
   <g id="matplotlib.axis_1">
    <g id="xtick_1">
     <g id="line2d_1">
      <path clip-path="url(#peb274e0c22)" d="M 70.569708 252 
L 70.569708 34.56 
" style="fill:none;stroke:#ffffff;stroke-linecap:round;stroke-width:0.8;"/>
     </g>
     <g id="line2d_2"/>
     <g id="text_1">
      <!-- 1.00 -->
      <defs>
       <path d="M 37.25 0 
L 28.46875 0 
L 28.46875 56 
Q 25.296875 52.984375 20.140625 49.953125 
Q 14.984375 46.921875 10.890625 45.40625 
L 10.890625 53.90625 
Q 18.265625 57.375 23.78125 62.296875 
Q 29.296875 67.234375 31.59375 71.875 
L 37.25 71.875 
z
" id="ArialMT-31"/>
       <path d="M 9.078125 0 
L 9.078125 10.015625 
L 19.09375 10.015625 
L 19.09375 0 
z
" id="ArialMT-2e"/>
       <path d="M 4.15625 35.296875 
Q 4.15625 48 6.765625 55.734375 
Q 9.375 63.484375 14.515625 67.671875 
Q 19.671875 71.875 27.484375 71.875 
Q 33.25 71.875 37.59375 69.546875 
Q 41.9375 67.234375 44.765625 62.859375 
Q 47.609375 58.5 49.21875 52.21875 
Q 50.828125 45.953125 50.828125 35.296875 
Q 50.828125 22.703125 48.234375 14.96875 
Q 45.65625 7.234375 40.5 3 
Q 35.359375 -1.21875 27.484375 -1.21875 
Q 17.140625 -1.21875 11.234375 6.203125 
Q 4.15625 15.140625 4.15625 35.296875 
z
M 13.1875 35.296875 
Q 13.1875 17.671875 17.3125 11.828125 
Q 21.4375 6 27.484375 6 
Q 33.546875 6 37.671875 11.859375 
Q 41.796875 17.71875 41.796875 35.296875 
Q 41.796875 52.984375 37.671875 58.78125 
Q 33.546875 64.59375 27.390625 64.59375 
Q 21.34375 64.59375 17.71875 59.46875 
Q 13.1875 52.9375 13.1875 35.296875 
z
" id="ArialMT-30"/>
      </defs>
      <g style="fill:#262626;" transform="translate(60.839239 262.657812)scale(0.1 -0.1)">
       <use xlink:href="#ArialMT-31"/>
       <use x="55.615234" xlink:href="#ArialMT-2e"/>
       <use x="83.398438" xlink:href="#ArialMT-30"/>
       <use x="139.013672" xlink:href="#ArialMT-30"/>
      </g>
     </g>
    </g>
    <g id="xtick_2">
     <g id="line2d_3">
      <path clip-path="url(#peb274e0c22)" d="M 108.277281 252 
L 108.277281 34.56 
" style="fill:none;stroke:#ffffff;stroke-linecap:round;stroke-width:0.8;"/>
     </g>
     <g id="line2d_4"/>
     <g id="text_2">
      <!-- 1.25 -->
      <defs>
       <path d="M 50.34375 8.453125 
L 50.34375 0 
L 3.03125 0 
Q 2.9375 3.171875 4.046875 6.109375 
Q 5.859375 10.9375 9.828125 15.625 
Q 13.8125 20.3125 21.34375 26.46875 
Q 33.015625 36.03125 37.109375 41.625 
Q 41.21875 47.21875 41.21875 52.203125 
Q 41.21875 57.421875 37.46875 61 
Q 33.734375 64.59375 27.734375 64.59375 
Q 21.390625 64.59375 17.578125 60.78125 
Q 13.765625 56.984375 13.71875 50.25 
L 4.6875 51.171875 
Q 5.609375 61.28125 11.65625 66.578125 
Q 17.71875 71.875 27.9375 71.875 
Q 38.234375 71.875 44.234375 66.15625 
Q 50.25 60.453125 50.25 52 
Q 50.25 47.703125 48.484375 43.546875 
Q 46.734375 39.40625 42.65625 34.8125 
Q 38.578125 30.21875 29.109375 22.21875 
Q 21.1875 15.578125 18.9375 13.203125 
Q 16.703125 10.84375 15.234375 8.453125 
z
" id="ArialMT-32"/>
       <path d="M 4.15625 18.75 
L 13.375 19.53125 
Q 14.40625 12.796875 18.140625 9.390625 
Q 21.875 6 27.15625 6 
Q 33.5 6 37.890625 10.78125 
Q 42.28125 15.578125 42.28125 23.484375 
Q 42.28125 31 38.0625 35.34375 
Q 33.84375 39.703125 27 39.703125 
Q 22.75 39.703125 19.328125 37.765625 
Q 15.921875 35.84375 13.96875 32.765625 
L 5.71875 33.84375 
L 12.640625 70.609375 
L 48.25 70.609375 
L 48.25 62.203125 
L 19.671875 62.203125 
L 15.828125 42.96875 
Q 22.265625 47.46875 29.34375 47.46875 
Q 38.71875 47.46875 45.15625 40.96875 
Q 51.609375 34.46875 51.609375 24.265625 
Q 51.609375 14.546875 45.953125 7.46875 
Q 39.0625 -1.21875 27.15625 -1.21875 
Q 17.390625 -1.21875 11.203125 4.25 
Q 5.03125 9.71875 4.15625 18.75 
z
" id="ArialMT-35"/>
      </defs>
      <g style="fill:#262626;" transform="translate(98.546812 262.657812)scale(0.1 -0.1)">
       <use xlink:href="#ArialMT-31"/>
       <use x="55.615234" xlink:href="#ArialMT-2e"/>
       <use x="83.398438" xlink:href="#ArialMT-32"/>
       <use x="139.013672" xlink:href="#ArialMT-35"/>
      </g>
     </g>
    </g>
    <g id="xtick_3">
     <g id="line2d_5">
      <path clip-path="url(#peb274e0c22)" d="M 145.984854 252 
L 145.984854 34.56 
" style="fill:none;stroke:#ffffff;stroke-linecap:round;stroke-width:0.8;"/>
     </g>
     <g id="line2d_6"/>
     <g id="text_3">
      <!-- 1.50 -->
      <g style="fill:#262626;" transform="translate(136.254385 262.657812)scale(0.1 -0.1)">
       <use xlink:href="#ArialMT-31"/>
       <use x="55.615234" xlink:href="#ArialMT-2e"/>
       <use x="83.398438" xlink:href="#ArialMT-35"/>
       <use x="139.013672" xlink:href="#ArialMT-30"/>
      </g>
     </g>
    </g>
    <g id="xtick_4">
     <g id="line2d_7">
      <path clip-path="url(#peb274e0c22)" d="M 183.692427 252 
L 183.692427 34.56 
" style="fill:none;stroke:#ffffff;stroke-linecap:round;stroke-width:0.8;"/>
     </g>
     <g id="line2d_8"/>
     <g id="text_4">
      <!-- 1.75 -->
      <defs>
       <path d="M 4.734375 62.203125 
L 4.734375 70.65625 
L 51.078125 70.65625 
L 51.078125 63.8125 
Q 44.234375 56.546875 37.515625 44.484375 
Q 30.8125 32.421875 27.15625 19.671875 
Q 24.515625 10.6875 23.78125 0 
L 14.75 0 
Q 14.890625 8.453125 18.0625 20.40625 
Q 21.234375 32.375 27.171875 43.484375 
Q 33.109375 54.59375 39.796875 62.203125 
z
" id="ArialMT-37"/>
      </defs>
      <g style="fill:#262626;" transform="translate(173.961958 262.657812)scale(0.1 -0.1)">
       <use xlink:href="#ArialMT-31"/>
       <use x="55.615234" xlink:href="#ArialMT-2e"/>
       <use x="83.398438" xlink:href="#ArialMT-37"/>
       <use x="139.013672" xlink:href="#ArialMT-35"/>
      </g>
     </g>
    </g>
    <g id="xtick_5">
     <g id="line2d_9">
      <path clip-path="url(#peb274e0c22)" d="M 221.4 252 
L 221.4 34.56 
" style="fill:none;stroke:#ffffff;stroke-linecap:round;stroke-width:0.8;"/>
     </g>
     <g id="line2d_10"/>
     <g id="text_5">
      <!-- 2.00 -->
      <g style="fill:#262626;" transform="translate(211.669531 262.657812)scale(0.1 -0.1)">
       <use xlink:href="#ArialMT-32"/>
       <use x="55.615234" xlink:href="#ArialMT-2e"/>
       <use x="83.398438" xlink:href="#ArialMT-30"/>
       <use x="139.013672" xlink:href="#ArialMT-30"/>
      </g>
     </g>
    </g>
    <g id="xtick_6">
     <g id="line2d_11">
      <path clip-path="url(#peb274e0c22)" d="M 259.107573 252 
L 259.107573 34.56 
" style="fill:none;stroke:#ffffff;stroke-linecap:round;stroke-width:0.8;"/>
     </g>
     <g id="line2d_12"/>
     <g id="text_6">
      <!-- 2.25 -->
      <g style="fill:#262626;" transform="translate(249.377104 262.657812)scale(0.1 -0.1)">
       <use xlink:href="#ArialMT-32"/>
       <use x="55.615234" xlink:href="#ArialMT-2e"/>
       <use x="83.398438" xlink:href="#ArialMT-32"/>
       <use x="139.013672" xlink:href="#ArialMT-35"/>
      </g>
     </g>
    </g>
    <g id="xtick_7">
     <g id="line2d_13">
      <path clip-path="url(#peb274e0c22)" d="M 296.815146 252 
L 296.815146 34.56 
" style="fill:none;stroke:#ffffff;stroke-linecap:round;stroke-width:0.8;"/>
     </g>
     <g id="line2d_14"/>
     <g id="text_7">
      <!-- 2.50 -->
      <g style="fill:#262626;" transform="translate(287.084677 262.657812)scale(0.1 -0.1)">
       <use xlink:href="#ArialMT-32"/>
       <use x="55.615234" xlink:href="#ArialMT-2e"/>
       <use x="83.398438" xlink:href="#ArialMT-35"/>
       <use x="139.013672" xlink:href="#ArialMT-30"/>
      </g>
     </g>
    </g>
    <g id="xtick_8">
     <g id="line2d_15">
      <path clip-path="url(#peb274e0c22)" d="M 334.522719 252 
L 334.522719 34.56 
" style="fill:none;stroke:#ffffff;stroke-linecap:round;stroke-width:0.8;"/>
     </g>
     <g id="line2d_16"/>
     <g id="text_8">
      <!-- 2.75 -->
      <g style="fill:#262626;" transform="translate(324.79225 262.657812)scale(0.1 -0.1)">
       <use xlink:href="#ArialMT-32"/>
       <use x="55.615234" xlink:href="#ArialMT-2e"/>
       <use x="83.398438" xlink:href="#ArialMT-37"/>
       <use x="139.013672" xlink:href="#ArialMT-35"/>
      </g>
     </g>
    </g>
    <g id="xtick_9">
     <g id="line2d_17">
      <path clip-path="url(#peb274e0c22)" d="M 372.230292 252 
L 372.230292 34.56 
" style="fill:none;stroke:#ffffff;stroke-linecap:round;stroke-width:0.8;"/>
     </g>
     <g id="line2d_18"/>
     <g id="text_9">
      <!-- 3.00 -->
      <defs>
       <path d="M 4.203125 18.890625 
L 12.984375 20.0625 
Q 14.5 12.59375 18.140625 9.296875 
Q 21.78125 6 27 6 
Q 33.203125 6 37.46875 10.296875 
Q 41.75 14.59375 41.75 20.953125 
Q 41.75 27 37.796875 30.921875 
Q 33.84375 34.859375 27.734375 34.859375 
Q 25.25 34.859375 21.53125 33.890625 
L 22.515625 41.609375 
Q 23.390625 41.5 23.921875 41.5 
Q 29.546875 41.5 34.03125 44.421875 
Q 38.53125 47.359375 38.53125 53.46875 
Q 38.53125 58.296875 35.25 61.46875 
Q 31.984375 64.65625 26.8125 64.65625 
Q 21.6875 64.65625 18.265625 61.421875 
Q 14.84375 58.203125 13.875 51.765625 
L 5.078125 53.328125 
Q 6.6875 62.15625 12.390625 67.015625 
Q 18.109375 71.875 26.609375 71.875 
Q 32.46875 71.875 37.390625 69.359375 
Q 42.328125 66.84375 44.9375 62.5 
Q 47.5625 58.15625 47.5625 53.265625 
Q 47.5625 48.640625 45.0625 44.828125 
Q 42.578125 41.015625 37.703125 38.765625 
Q 44.046875 37.3125 47.5625 32.6875 
Q 51.078125 28.078125 51.078125 21.140625 
Q 51.078125 11.765625 44.234375 5.25 
Q 37.40625 -1.265625 26.953125 -1.265625 
Q 17.53125 -1.265625 11.296875 4.34375 
Q 5.078125 9.96875 4.203125 18.890625 
z
" id="ArialMT-33"/>
      </defs>
      <g style="fill:#262626;" transform="translate(362.499824 262.657812)scale(0.1 -0.1)">
       <use xlink:href="#ArialMT-33"/>
       <use x="55.615234" xlink:href="#ArialMT-2e"/>
       <use x="83.398438" xlink:href="#ArialMT-30"/>
       <use x="139.013672" xlink:href="#ArialMT-30"/>
      </g>
     </g>
    </g>
   </g>
   <g id="matplotlib.axis_2">
    <g id="ytick_1">
     <g id="line2d_19">
      <path clip-path="url(#peb274e0c22)" d="M 54 240.771285 
L 388.8 240.771285 
" style="fill:none;stroke:#ffffff;stroke-linecap:round;stroke-width:0.8;"/>
     </g>
     <g id="line2d_20"/>
     <g id="text_10">
      <!-- 4.00 -->
      <defs>
       <path d="M 32.328125 0 
L 32.328125 17.140625 
L 1.265625 17.140625 
L 1.265625 25.203125 
L 33.9375 71.578125 
L 41.109375 71.578125 
L 41.109375 25.203125 
L 50.78125 25.203125 
L 50.78125 17.140625 
L 41.109375 17.140625 
L 41.109375 0 
z
M 32.328125 25.203125 
L 32.328125 57.46875 
L 9.90625 25.203125 
z
" id="ArialMT-34"/>
      </defs>
      <g style="fill:#262626;" transform="translate(31.039062 244.350191)scale(0.1 -0.1)">
       <use xlink:href="#ArialMT-34"/>
       <use x="55.615234" xlink:href="#ArialMT-2e"/>
       <use x="83.398438" xlink:href="#ArialMT-30"/>
       <use x="139.013672" xlink:href="#ArialMT-30"/>
      </g>
     </g>
    </g>
    <g id="ytick_2">
     <g id="line2d_21">
      <path clip-path="url(#peb274e0c22)" d="M 54 216.398464 
L 388.8 216.398464 
" style="fill:none;stroke:#ffffff;stroke-linecap:round;stroke-width:0.8;"/>
     </g>
     <g id="line2d_22"/>
     <g id="text_11">
      <!-- 4.25 -->
      <g style="fill:#262626;" transform="translate(31.039062 219.97737)scale(0.1 -0.1)">
       <use xlink:href="#ArialMT-34"/>
       <use x="55.615234" xlink:href="#ArialMT-2e"/>
       <use x="83.398438" xlink:href="#ArialMT-32"/>
       <use x="139.013672" xlink:href="#ArialMT-35"/>
      </g>
     </g>
    </g>
    <g id="ytick_3">
     <g id="line2d_23">
      <path clip-path="url(#peb274e0c22)" d="M 54 192.025643 
L 388.8 192.025643 
" style="fill:none;stroke:#ffffff;stroke-linecap:round;stroke-width:0.8;"/>
     </g>
     <g id="line2d_24"/>
     <g id="text_12">
      <!-- 4.50 -->
      <g style="fill:#262626;" transform="translate(31.039062 195.604549)scale(0.1 -0.1)">
       <use xlink:href="#ArialMT-34"/>
       <use x="55.615234" xlink:href="#ArialMT-2e"/>
       <use x="83.398438" xlink:href="#ArialMT-35"/>
       <use x="139.013672" xlink:href="#ArialMT-30"/>
      </g>
     </g>
    </g>
    <g id="ytick_4">
     <g id="line2d_25">
      <path clip-path="url(#peb274e0c22)" d="M 54 167.652821 
L 388.8 167.652821 
" style="fill:none;stroke:#ffffff;stroke-linecap:round;stroke-width:0.8;"/>
     </g>
     <g id="line2d_26"/>
     <g id="text_13">
      <!-- 4.75 -->
      <g style="fill:#262626;" transform="translate(31.039062 171.231728)scale(0.1 -0.1)">
       <use xlink:href="#ArialMT-34"/>
       <use x="55.615234" xlink:href="#ArialMT-2e"/>
       <use x="83.398438" xlink:href="#ArialMT-37"/>
       <use x="139.013672" xlink:href="#ArialMT-35"/>
      </g>
     </g>
    </g>
    <g id="ytick_5">
     <g id="line2d_27">
      <path clip-path="url(#peb274e0c22)" d="M 54 143.28 
L 388.8 143.28 
" style="fill:none;stroke:#ffffff;stroke-linecap:round;stroke-width:0.8;"/>
     </g>
     <g id="line2d_28"/>
     <g id="text_14">
      <!-- 5.00 -->
      <g style="fill:#262626;" transform="translate(31.039062 146.858906)scale(0.1 -0.1)">
       <use xlink:href="#ArialMT-35"/>
       <use x="55.615234" xlink:href="#ArialMT-2e"/>
       <use x="83.398438" xlink:href="#ArialMT-30"/>
       <use x="139.013672" xlink:href="#ArialMT-30"/>
      </g>
     </g>
    </g>
    <g id="ytick_6">
     <g id="line2d_29">
      <path clip-path="url(#peb274e0c22)" d="M 54 118.907179 
L 388.8 118.907179 
" style="fill:none;stroke:#ffffff;stroke-linecap:round;stroke-width:0.8;"/>
     </g>
     <g id="line2d_30"/>
     <g id="text_15">
      <!-- 5.25 -->
      <g style="fill:#262626;" transform="translate(31.039062 122.486085)scale(0.1 -0.1)">
       <use xlink:href="#ArialMT-35"/>
       <use x="55.615234" xlink:href="#ArialMT-2e"/>
       <use x="83.398438" xlink:href="#ArialMT-32"/>
       <use x="139.013672" xlink:href="#ArialMT-35"/>
      </g>
     </g>
    </g>
    <g id="ytick_7">
     <g id="line2d_31">
      <path clip-path="url(#peb274e0c22)" d="M 54 94.534357 
L 388.8 94.534357 
" style="fill:none;stroke:#ffffff;stroke-linecap:round;stroke-width:0.8;"/>
     </g>
     <g id="line2d_32"/>
     <g id="text_16">
      <!-- 5.50 -->
      <g style="fill:#262626;" transform="translate(31.039062 98.113264)scale(0.1 -0.1)">
       <use xlink:href="#ArialMT-35"/>
       <use x="55.615234" xlink:href="#ArialMT-2e"/>
       <use x="83.398438" xlink:href="#ArialMT-35"/>
       <use x="139.013672" xlink:href="#ArialMT-30"/>
      </g>
     </g>
    </g>
    <g id="ytick_8">
     <g id="line2d_33">
      <path clip-path="url(#peb274e0c22)" d="M 54 70.161536 
L 388.8 70.161536 
" style="fill:none;stroke:#ffffff;stroke-linecap:round;stroke-width:0.8;"/>
     </g>
     <g id="line2d_34"/>
     <g id="text_17">
      <!-- 5.75 -->
      <g style="fill:#262626;" transform="translate(31.039062 73.740442)scale(0.1 -0.1)">
       <use xlink:href="#ArialMT-35"/>
       <use x="55.615234" xlink:href="#ArialMT-2e"/>
       <use x="83.398438" xlink:href="#ArialMT-37"/>
       <use x="139.013672" xlink:href="#ArialMT-35"/>
      </g>
     </g>
    </g>
    <g id="ytick_9">
     <g id="line2d_35">
      <path clip-path="url(#peb274e0c22)" d="M 54 45.788715 
L 388.8 45.788715 
" style="fill:none;stroke:#ffffff;stroke-linecap:round;stroke-width:0.8;"/>
     </g>
     <g id="line2d_36"/>
     <g id="text_18">
      <!-- 6.00 -->
      <defs>
       <path d="M 49.75 54.046875 
L 41.015625 53.375 
Q 39.84375 58.546875 37.703125 60.890625 
Q 34.125 64.65625 28.90625 64.65625 
Q 24.703125 64.65625 21.53125 62.3125 
Q 17.390625 59.28125 14.984375 53.46875 
Q 12.59375 47.65625 12.5 36.921875 
Q 15.671875 41.75 20.265625 44.09375 
Q 24.859375 46.4375 29.890625 46.4375 
Q 38.671875 46.4375 44.84375 39.96875 
Q 51.03125 33.5 51.03125 23.25 
Q 51.03125 16.5 48.125 10.71875 
Q 45.21875 4.9375 40.140625 1.859375 
Q 35.0625 -1.21875 28.609375 -1.21875 
Q 17.625 -1.21875 10.6875 6.859375 
Q 3.765625 14.9375 3.765625 33.5 
Q 3.765625 54.25 11.421875 63.671875 
Q 18.109375 71.875 29.4375 71.875 
Q 37.890625 71.875 43.28125 67.140625 
Q 48.6875 62.40625 49.75 54.046875 
z
M 13.875 23.1875 
Q 13.875 18.65625 15.796875 14.5 
Q 17.71875 10.359375 21.1875 8.171875 
Q 24.65625 6 28.46875 6 
Q 34.03125 6 38.03125 10.484375 
Q 42.046875 14.984375 42.046875 22.703125 
Q 42.046875 30.125 38.078125 34.390625 
Q 34.125 38.671875 28.125 38.671875 
Q 22.171875 38.671875 18.015625 34.390625 
Q 13.875 30.125 13.875 23.1875 
z
" id="ArialMT-36"/>
      </defs>
      <g style="fill:#262626;" transform="translate(31.039062 49.367621)scale(0.1 -0.1)">
       <use xlink:href="#ArialMT-36"/>
       <use x="55.615234" xlink:href="#ArialMT-2e"/>
       <use x="83.398438" xlink:href="#ArialMT-30"/>
       <use x="139.013672" xlink:href="#ArialMT-30"/>
      </g>
     </g>
    </g>
   </g>
   <g id="PathCollection_1">
    <defs>
     <path d="M 0 3 
C 0.795609 3 1.55874 2.683901 2.12132 2.12132 
C 2.683901 1.55874 3 0.795609 3 0 
C 3 -0.795609 2.683901 -1.55874 2.12132 -2.12132 
C 1.55874 -2.683901 0.795609 -3 0 -3 
C -0.795609 -3 -1.55874 -2.683901 -2.12132 -2.12132 
C -2.683901 -1.55874 -3 -0.795609 -3 0 
C -3 0.795609 -2.683901 1.55874 -2.12132 2.12132 
C -1.55874 2.683901 -0.795609 3 0 3 
z
" id="mae165dbdf3" style="stroke:#1f77b4;"/>
    </defs>
    <g clip-path="url(#peb274e0c22)">
     <use style="fill:#1f77b4;stroke:#1f77b4;" x="70.569708" xlink:href="#mae165dbdf3" y="240.771285"/>
     <use style="fill:#1f77b4;stroke:#1f77b4;" x="221.4" xlink:href="#mae165dbdf3" y="143.28"/>
     <use style="fill:#1f77b4;stroke:#1f77b4;" x="372.230292" xlink:href="#mae165dbdf3" y="45.788715"/>
    </g>
   </g>
   <g id="PathCollection_2">
    <a xlink:href="http://www.google.com">
     <path clip-path="url(#peb274e0c22)" d="M 225.309804 240.771285 
L 225.309804 234.615625 
L 221.753508 234.615625 
L 221.753508 233.793042 
L 230.310771 233.793042 
L 230.310771 234.615625 
L 226.740335 234.615625 
L 226.740335 240.771285 
z
M 231.607852 240.771285 
L 231.607852 233.793042 
L 232.932331 233.793042 
L 232.932331 236.295826 
Q 233.86088 235.6012 235.274914 235.6012 
Q 236.144545 235.6012 236.785574 235.823602 
Q 237.426602 236.044481 237.702339 236.434446 
Q 237.978076 236.824411 237.978076 237.567782 
L 237.978076 240.771285 
L 236.653597 240.771285 
L 236.653597 237.567782 
Q 236.653597 236.924949 236.222317 236.632475 
Q 235.791036 236.340002 235.003891 236.340002 
Q 234.41471 236.340002 233.893874 236.538031 
Q 233.375395 236.734537 233.153863 237.07271 
Q 232.932331 237.410882 232.932331 238.00497 
L 232.932331 240.771285 
z
M 240.003385 234.778618 
L 240.003385 233.793042 
L 241.33022 233.793042 
L 241.33022 234.778618 
z
M 240.003385 240.771285 
L 240.003385 235.715448 
L 241.33022 235.715448 
L 241.33022 240.771285 
z
M 242.817018 239.261694 
L 244.127356 239.129166 
Q 244.238122 239.637949 244.742461 239.909097 
Q 245.246799 240.180244 246.154138 240.180244 
Q 247.06619 240.180244 247.506897 239.941086 
Q 247.949961 239.700404 247.949961 239.375941 
Q 247.949961 239.086514 247.558745 238.918951 
Q 247.287722 238.804703 246.203629 238.629524 
Q 244.747174 238.390365 244.183917 238.216709 
Q 243.62066 238.043053 243.328427 237.736869 
Q 243.03855 237.429162 243.03855 237.057477 
Q 243.03855 236.720827 243.276579 236.432923 
Q 243.516965 236.143496 243.929391 235.953083 
Q 244.238122 235.806846 244.770741 235.704785 
Q 245.305718 235.6012 245.918466 235.6012 
Q 246.837588 235.6012 247.532821 235.773334 
Q 248.230411 235.943943 248.560352 236.23794 
Q 248.89265 236.530414 249.017557 237.019394 
L 247.721359 237.133642 
Q 247.63416 236.743676 247.20995 236.525844 
Q 246.78574 236.306489 246.012735 236.306489 
Q 245.100683 236.306489 244.709467 236.501472 
Q 244.31825 236.696454 244.31825 236.958462 
Q 244.31825 237.124502 244.480864 237.258552 
Q 244.643478 237.395649 244.989917 237.487048 
Q 245.187881 237.53427 246.161208 237.70488 
Q 247.568172 237.948608 248.122002 238.103985 
Q 248.678189 238.257838 248.99399 238.553358 
Q 249.312147 238.847356 249.312147 239.286066 
Q 249.312147 239.714114 248.925645 240.093416 
Q 248.539142 240.471195 247.808558 240.678364 
Q 247.08033 240.885533 246.161208 240.885533 
Q 244.636408 240.885533 243.837479 240.475765 
Q 243.03855 240.065997 242.817018 239.261694 
z
M 255.086414 234.778618 
L 255.086414 233.793042 
L 256.413249 233.793042 
L 256.413249 234.778618 
z
M 255.086414 240.771285 
L 255.086414 235.715448 
L 256.413249 235.715448 
L 256.413249 240.771285 
z
M 257.900047 239.261694 
L 259.210385 239.129166 
Q 259.321151 239.637949 259.82549 239.909097 
Q 260.329829 240.180244 261.237167 240.180244 
Q 262.149219 240.180244 262.589926 239.941086 
Q 263.03299 239.700404 263.03299 239.375941 
Q 263.03299 239.086514 262.641774 238.918951 
Q 262.370751 238.804703 261.286658 238.629524 
Q 259.830203 238.390365 259.266946 238.216709 
Q 258.70369 238.043053 258.411456 237.736869 
Q 258.121579 237.429162 258.121579 237.057477 
Q 258.121579 236.720827 258.359608 236.432923 
Q 258.599994 236.143496 259.01242 235.953083 
Q 259.321151 235.806846 259.853771 235.704785 
Q 260.388747 235.6012 261.001495 235.6012 
Q 261.920617 235.6012 262.61585 235.773334 
Q 263.31344 235.943943 263.643382 236.23794 
Q 263.97568 236.530414 264.100586 237.019394 
L 262.804388 237.133642 
Q 262.717189 236.743676 262.292979 236.525844 
Q 261.868769 236.306489 261.095764 236.306489 
Q 260.183712 236.306489 259.792496 236.501472 
Q 259.40128 236.696454 259.40128 236.958462 
Q 259.40128 237.124502 259.563894 237.258552 
Q 259.726508 237.395649 260.072946 237.487048 
Q 260.270911 237.53427 261.244237 237.70488 
Q 262.651201 237.948608 263.205031 238.103985 
Q 263.761218 238.257838 264.077019 238.553358 
Q 264.395176 238.847356 264.395176 239.286066 
Q 264.395176 239.714114 264.008674 240.093416 
Q 263.622171 240.471195 262.891587 240.678364 
Q 262.163359 240.885533 261.244237 240.885533 
Q 259.719437 240.885533 258.920508 240.475765 
Q 258.121579 240.065997 257.900047 239.261694 
z
M 273.056429 240.005065 
L 273.247324 240.762145 
Q 272.68878 240.83831 272.245716 240.83831 
Q 271.524559 240.83831 271.126273 240.69055 
Q 270.730343 240.54279 270.567729 240.302108 
Q 270.405115 240.061427 270.405115 239.290636 
L 270.405115 236.382654 
L 269.434145 236.382654 
L 269.434145 235.715448 
L 270.405115 235.715448 
L 270.405115 234.463294 
L 271.722524 233.949942 
L 271.722524 235.715448 
L 273.056429 235.715448 
L 273.056429 236.382654 
L 271.722524 236.382654 
L 271.722524 239.337859 
Q 271.722524 239.704974 271.793225 239.810082 
Q 271.863927 239.913667 272.021828 239.976122 
Q 272.179728 240.038577 272.474319 240.038577 
Q 272.695851 240.038577 273.056429 240.005065 
z
M 279.707397 239.142876 
L 281.076653 239.252554 
Q 280.753782 240.027914 279.877081 240.457485 
Q 279.00038 240.885533 277.638194 240.885533 
Q 275.922499 240.885533 274.916178 240.203094 
Q 273.909858 239.519132 273.909858 238.286781 
Q 273.909858 237.010254 274.925605 236.306489 
Q 275.94371 235.6012 277.562779 235.6012 
Q 279.132356 235.6012 280.126894 236.291256 
Q 281.121431 236.981311 281.121431 238.233465 
Q 281.121431 238.30963 281.114361 238.46196 
L 275.281471 238.46196 
Q 275.354529 239.295206 276.009698 239.738487 
Q 276.664867 240.180244 277.645264 240.180244 
Q 278.373492 240.180244 278.889614 239.933469 
Q 279.405736 239.685171 279.707397 239.142876 
z
M 275.354529 237.758195 
L 279.721537 237.758195 
Q 279.634339 237.119932 279.221912 236.801562 
Q 278.587953 236.306489 277.579276 236.306489 
Q 276.664867 236.306489 276.042692 236.701024 
Q 275.420517 237.095559 275.354529 237.758195 
z
M 281.857612 240.771285 
L 284.713961 238.14359 
L 282.072074 235.715448 
L 283.728851 235.715448 
L 284.928423 236.900577 
Q 285.267791 237.238749 285.472826 237.467245 
Q 285.798054 237.153445 286.069077 236.91124 
L 287.388842 235.715448 
L 288.97256 235.715448 
L 286.269398 238.096368 
L 289.177595 240.771285 
L 287.551456 240.771285 
L 285.944171 239.200762 
L 285.517604 238.777284 
L 283.462541 240.771285 
z
M 293.176955 240.005065 
L 293.367849 240.762145 
Q 292.809306 240.83831 292.366242 240.83831 
Q 291.645084 240.83831 291.246798 240.69055 
Q 290.850869 240.54279 290.688255 240.302108 
Q 290.525641 240.061427 290.525641 239.290636 
L 290.525641 236.382654 
L 289.554671 236.382654 
L 289.554671 235.715448 
L 290.525641 235.715448 
L 290.525641 234.463294 
L 291.843049 233.949942 
L 291.843049 235.715448 
L 293.176955 235.715448 
L 293.176955 236.382654 
L 291.843049 236.382654 
L 291.843049 239.337859 
Q 291.843049 239.704974 291.913751 239.810082 
Q 291.984453 239.913667 292.142353 239.976122 
Q 292.300253 240.038577 292.594844 240.038577 
Q 292.816376 240.038577 293.176955 240.005065 
z
" style="fill:#1f77b4;"/>
    </a>
   </g>
   <g id="patch_3">
    <path d="M 54 252 
L 54 34.56 
" style="fill:none;"/>
   </g>
   <g id="patch_4">
    <path d="M 388.8 252 
L 388.8 34.56 
" style="fill:none;"/>
   </g>
   <g id="patch_5">
    <path d="M 54 252 
L 388.8 252 
" style="fill:none;"/>
   </g>
   <g id="patch_6">
    <path d="M 54 34.56 
L 388.8 34.56 
" style="fill:none;"/>
   </g>
  </g>
 </g>
 <defs>
  <clipPath id="peb274e0c22">
   <rect height="217.44" width="334.8" x="54" y="34.56"/>
  </clipPath>
 </defs>
</svg>
